<?xml version="1.0" encoding="UTF-8"?>
<svg width="56px" height="42px" viewBox="0 0 56 42" version="1.1" xmlns="http://www.w3.org/2000/svg" xmlns:xlink="http://www.w3.org/1999/xlink">
    <!-- Generator: Sketch 48.1 (47250) - http://www.bohemiancoding.com/sketch -->
    <title>Fill 1</title>
    <desc>Created with Sketch.</desc>
    <defs></defs>
    <g id="Profile---V1---Customized" stroke="none" stroke-width="1" fill="none" fill-rule="evenodd" transform="translate(-71.000000, -64.000000)">
        <path d="M98.5975568,101.198621 C92.2154736,101.198621 86.4412885,98.5595984 82.2986071,94.318705 L98.5975568,78.0197553 L114.89566,94.3178584 C110.752978,98.5587518 104.97964,101.198621 98.5975568,101.198621 Z M75.7988389,78.3990566 C75.7996855,73.1057714 80.106618,68.7996855 85.4007499,68.7996855 L85.4015965,68.7996855 C87.9644203,68.7996855 90.3748463,69.7987381 92.187534,71.6114258 L95.2024714,74.6263632 L79.304836,90.5239986 C77.0874473,87.0086883 75.7988389,82.8524603 75.7988389,78.3990566 Z M105.005886,71.6105792 C106.818574,69.7970448 109.229,68.7988389 111.791824,68.7988389 L111.793517,68.7988389 C117.087649,68.7988389 121.394581,73.1049247 121.394581,78.3982099 C121.394581,82.8516137 120.10682,87.0078416 117.889431,90.523152 L101.991796,74.6255166 L105.005886,71.6105792 Z M126.194267,78.3990566 C126.194267,70.4591288 119.733445,64 111.79267,64 L111.790977,64 C107.946318,64 104.331102,65.4977322 101.611648,68.2171871 L98.5967101,71.2321245 L95.5817727,68.2171871 C92.8623178,65.4977322 89.2471022,64 85.4024432,64 L85.4007499,64 C77.4608221,64 71.0008467,70.4591288 71.0008467,78.3990566 L71,78.3990566 C71,84.1808616 72.789828,89.5494991 75.840325,93.9893563 L71.8364948,97.9931864 L75.2307336,101.387425 L78.9060616,97.7120971 C83.9174108,102.821658 90.8921523,106 98.5975568,106 C106.303808,106 113.276856,102.821658 118.288205,97.7120971 L121.96438,101.387425 L125.359465,97.9931864 L121.354789,93.9893563 C124.404439,89.5494991 126.194267,84.1800149 126.194267,78.3990566 Z" id="Fill-1" fill="#177DF3"></path>
    </g>
</svg>